<?xml version="1.0" encoding="utf-8"?>
<!-- Generator: Adobe Illustrator 27.6.1, SVG Export Plug-In . SVG Version: 6.00 Build 0)  -->
<svg version="1.1" id="Layer_2_00000168802949290166571110000000148584674497449605_"
	 xmlns="http://www.w3.org/2000/svg" xmlns:xlink="http://www.w3.org/1999/xlink" x="0px" y="0px" viewBox="0 0 60 60"
	 style="enable-background:new 0 0 60 60;" xml:space="preserve">
<style type="text/css">
	.st0{fill:#F2F2F2;}
</style>
<g id="Layer_1-2">
	<path class="st0" d="M15,45v-5h20v5H15z M15,32.5v-5h30v5H15z M15,20v-5h30v5H15z M10,60h2.4c1.7,0,2.6-0.8,2.6-2.5
		S14.2,55,12.4,55H10c-3.2,0-5-1.8-5-5v-2.5C5,45.9,4.2,45,2.5,45S0,45.9,0,47.5V50C0,56.7,3.3,60,10,60z M46.9,60H50
		c6.7,0,10-3.3,10-10v-2.5c0-1.7-0.8-2.5-2.5-2.5S55,45.9,55,47.5V50c0,3.2-1.8,5-5,5h-2.5c-1.7,0-2.5,0.8-2.5,2.5S45.6,60,46.9,60z
		 M2.5,15C4.2,15,5,14.2,5,12.4V10c0-3.2,1.8-5,5-5h2.4C14.2,5,15,4.2,15,2.5S14.2,0,12.4,0H10C3.3,0,0,3.3,0,10v2.4
		C0,14.2,0.8,15,2.5,15z M57.5,15c1.7,0,2.5-0.8,2.5-2.6V10c0-6.7-3.3-10-10-10h-2.5C45.9,0,45,0.8,45,2.5S45.9,5,47.5,5H50
		c3.2,0,5,1.8,5,5v2.4C55,14.2,55.8,15,57.5,15z"/>
</g>
</svg>
